<svg xmlns="http://www.w3.org/2000/svg" width="342" height="121.08" viewBox="0 0 342 121.08"><g transform="translate(0 -0.7)"><path d="M83.2,61.37,76.3,54.89h0l30.882-27.011h.168l-.084-.084.084-.084h-.168L76.3.7H57.7L88.582,27.8,57.7,54.89,94.3,89.475h18.6Z" transform="translate(-9.147 0)" fill="#06a0f6"/><path d="M39.224,28.855,59.42,46.61H43.179L22.9,28.855,43.179,11.1H59.42Z" transform="translate(-3.63 -1.649)" fill="#0249e1"/><path d="M172.913,69.112q0,29.157-23.645,29.157a35.367,35.367,0,0,1-11.781-1.783,19.7,19.7,0,0,1-8.162-5.439,22.646,22.646,0,0,1-4.712-9.095A46.782,46.782,0,0,1,123.1,69.2V33h11.7V69.112c0,3.834.168,6.42.589,7.757a24.3,24.3,0,0,0,2.1,4.815,10.629,10.629,0,0,0,4.376,4.369,13.965,13.965,0,0,0,6.563,1.516,11.981,11.981,0,0,0,6.732-1.783,12.831,12.831,0,0,0,3.871-4.191,14.578,14.578,0,0,0,1.767-4.637,59.923,59.923,0,0,0,.421-7.757V33H173Z" transform="translate(-15.698 -5.121)" fill="#06a0f6"/><path d="M200.633,94.427H188.6V33h12.033Z" transform="translate(-24.746 -3.337)" fill="#06a0f6"/><path d="M251.609,33l8.078,11.276H240.333V94.427H228.3V44.276H215.341L207.6,33Z" transform="translate(-26.426 -3.337)" fill="#06a0f6"/><path d="M319.844,84.245V94.427H273.9V33h36.856l8.583,11.276H285.681v13.8h25.665l-.168,10.518h-25.5V84.245Z" transform="translate(-35.05 -3.337)" fill="#06a0f6"/><path d="M383.883,56.362a22.26,22.26,0,0,1-3.618,7.58,17.757,17.757,0,0,1-5.89,4.9,16.042,16.042,0,0,1-7.826,1.783L384.3,98.184H372.355L354.348,70.63h-5.89V98.095H336.845V59.751h30.8a7.765,7.765,0,0,0,4.628-2.14c1.178-1.159,1.767-2.943,1.851-5.35,0-2.586-.589-4.548-1.851-5.885a5.746,5.746,0,0,0-4.628-1.962H342.82L333.9,33h32.733a16.582,16.582,0,0,1,7.91,1.783,16.278,16.278,0,0,1,5.806,5.083,23.521,23.521,0,0,1,3.618,7.669A16.55,16.55,0,0,1,383.883,56.362Z" transform="translate(-42.556 -5.119)" fill="#06a0f6"/><path d="M22.888,86.432a21.18,21.18,0,0,1-.757,5.638,15.658,15.658,0,0,1-2.02,4.544A10.684,10.684,0,0,1,17,99.643a7.108,7.108,0,0,1-3.871,1.094H2.188V83.318H7.237v12.37h5.89a2.808,2.808,0,0,0,1.935-.757A7.016,7.016,0,0,0,16.661,93a8.947,8.947,0,0,0,1.01-2.861,21.552,21.552,0,0,0,.252-3.282,22.661,22.661,0,0,0-.252-3.366,8.38,8.38,0,0,0-.926-3.029,8.91,8.91,0,0,0-1.6-1.935,3.105,3.105,0,0,0-2.02-.841H3.618L0,72.8H13.127a8.375,8.375,0,0,1,3.955,1.01A9.877,9.877,0,0,1,20.2,76.587a13.827,13.827,0,0,1,2.02,4.376A19.891,19.891,0,0,1,22.888,86.432Z" transform="translate(0 -8.939)" fill="#fff"/><path d="M50.953,96.009v4.712H30V72.7H46.829l3.955,5.133h-15.4v6.311h11.7L47,88.94H35.385v7.152H50.953Z" transform="translate(-4.756 -8.924)" fill="#fff"/><path d="M3.45,137.749,0,125.8H2.188l1.851,6.4,3.282-5.554,3.113,5.554,1.851-6.4h2.356l-3.45,11.949L7.4,130.6Z" transform="translate(0 -16.158)" fill="#fff"/><path d="M43.72,135.729v2.02H34.8V125.8h7.152l1.683,2.188H37.072v2.693h4.965v2.1H37.072v3.029Z" transform="translate(-5.517 -16.158)" fill="#fff"/><path d="M72.124,131.606a1.824,1.824,0,0,1,.841.926A4.394,4.394,0,0,1,73.3,134.3a6.54,6.54,0,0,1-.168,1.346A2.675,2.675,0,0,1,71.7,137.5a4.274,4.274,0,0,1-1.43.252H63.71v-7.068h6.143a1.981,1.981,0,0,0,.673-.168q.379-.126.5-1.262a1.772,1.772,0,0,0-.421-1.094.956.956,0,0,0-.673-.252H64.383L62.7,125.8h7.573a4.966,4.966,0,0,1,1.178.168,3.476,3.476,0,0,1,.926.589,6.276,6.276,0,0,1,.589,1.01,4.485,4.485,0,0,1,.084,2.356l-.252.757a1.761,1.761,0,0,1-.337.5A1.835,1.835,0,0,1,72.124,131.606ZM65.9,132.7v3.029h3.871a1.357,1.357,0,0,0,.757-.252c.252-.168.337-.589.337-1.346a1.575,1.575,0,0,0-.421-1.178,1.029,1.029,0,0,0-.757-.252Z" transform="translate(-9.94 -16.158)" fill="#fff"/><path d="M102.077,131.622a8.134,8.134,0,0,1-.337,2.44A5.65,5.65,0,0,1,100.9,136a3.9,3.9,0,0,1-1.346,1.262,3.034,3.034,0,0,1-1.683.5H93.157v-7.4h2.272v5.3h2.524a1.08,1.08,0,0,0,.841-.337,3.294,3.294,0,0,0,.673-.841,3.723,3.723,0,0,0,.421-1.262,7.239,7.239,0,0,0,.084-1.346c0-.5-.084-1.01-.084-1.43a7.01,7.01,0,0,0-.337-1.262,3.3,3.3,0,0,0-.673-.841,1.08,1.08,0,0,0-.841-.337H93.915L92.4,125.9h5.554a3.83,3.83,0,0,1,1.683.421,3.6,3.6,0,0,1,1.346,1.178,5.257,5.257,0,0,1,.841,1.851A9.894,9.894,0,0,1,102.077,131.622Z" transform="translate(-12.142 -16.174)" fill="#fff"/><path d="M130.22,135.729v2.02H121.3V125.8h7.152l1.683,2.188h-6.563v2.693h4.965v2.1h-4.965v3.029Z" transform="translate(-15.948 -16.158)" fill="#fff"/><path d="M151.672,125.8l2.693,7.068,2.861-7.068h2.188l-5.049,11.949L149.4,125.8Z" transform="translate(-19.628 -16.158)" fill="#fff"/><path d="M187.42,135.729v2.02H178.5V125.8h7.152l1.683,2.188h-6.563v2.693h4.965v2.1h-4.965v3.029Z" transform="translate(-23.468 -16.158)" fill="#fff"/><path d="M212.979,135.561l1.515,2.188H206.5V125.8h2.272v9.761Z" transform="translate(-27.165 -16.158)" fill="#fff"/><path d="M238.149,125.8a4.88,4.88,0,0,1,3.787,1.43c.841.926,1.262,2.524,1.262,4.628a7.07,7.07,0,0,1-1.262,4.628,5.665,5.665,0,0,1-7.573,0c-.841-.926-1.262-2.524-1.262-4.628a7.07,7.07,0,0,1,1.262-4.628A4.88,4.88,0,0,1,238.149,125.8Zm0,9.929a2.469,2.469,0,0,0,1.346-.337,2.911,2.911,0,0,0,.926-.841,3.189,3.189,0,0,0,.5-1.094,9.273,9.273,0,0,0,.168-1.515,4.66,4.66,0,0,0-.168-1.515,1.919,1.919,0,0,0-.5-1.01,4.41,4.41,0,0,0-.926-.841,2.583,2.583,0,0,0-2.693,0,3.488,3.488,0,0,0-1.431,1.851,9.273,9.273,0,0,0-.168,1.515,4.66,4.66,0,0,0,.168,1.515,2.608,2.608,0,0,0,.5,1.094,2.239,2.239,0,0,0,.926.841A1.915,1.915,0,0,0,238.149,135.728Z" transform="translate(-30.623 -16.157)" fill="#fff"/><path d="M271.777,130.076a5.032,5.032,0,0,1-.673,1.346A3.186,3.186,0,0,1,268.5,132.6h-3.534v5.049h-2.272v-7.068h5.974a1.5,1.5,0,0,0,.841-.337,2.16,2.16,0,0,0,.421-1.01,1.691,1.691,0,0,0-.337-1.094,1.266,1.266,0,0,0-.926-.337h-4.8l-1.767-2.1h6.311a3.3,3.3,0,0,1,1.515.337,2.93,2.93,0,0,1,1.094.926,3.2,3.2,0,0,1,.673,1.43A2.331,2.331,0,0,1,271.777,130.076Z" transform="translate(-34.44 -16.143)" fill="#fff"/><path d="M298.537,132.952l3.787-7.152,3.618,11.949h-2.356l-1.851-6.4-3.113,5.554-3.282-5.554-1.851,6.4H291.3l3.45-11.949Z" transform="translate(-38.156 -16.158)" fill="#fff"/><path d="M334.62,135.729v2.02H325.7V125.8h7.153l1.683,2.188h-6.563v2.693h4.965v2.1h-4.965v3.029Z" transform="translate(-41.256 -16.158)" fill="#fff"/><path d="M356.088,131.017v6.732H353.9V125.8l7.152,6.816v-6.732h2.272v11.865Z" transform="translate(-45.727 -16.158)" fill="#fff"/><path d="M390.583,125.8l1.6,2.188H388.4v9.761h-2.356v-9.761h-2.524L382,125.8Z" transform="translate(-50.182 -16.158)" fill="#fff"/></g></svg>